# xmcd CD database file
#
# Track frame offsets:
#	150
#	13478
#	26643
#	39760
#	52765
#	67115
#	79390
#	92470
#	105033
#	117490
#	130708
#	145540
#	157793
#	171910
#
# Disc length: 2459 seconds
#
# Revision: 0
# Processed by: cddbd v1.5.1PL2 Copyright (c) Steve Scherf et al.
# Submitted via: CDex 1.51
#
DISCID=a509990e
DTITLE=The Firehouse 5+2 - Jazz Best Selection - Dixie
DYEAR=1900
DGENRE=Jazz
TTITLE0=Firehouse Stomp
TTITLE1=Everybody loves My Baby
TTITLE2=Frankie and Johnny
TTITLE3=Sobbin' Blues
TTITLE4=Fireman's Lament
TTITLE5=Red Hot River Valley
TTITLE6=Just A Stomp At Twilight
TTITLE7=San
TTITLE8=Brass Bell
TTITLE9=I've Been Floating Down The Old Green River
TTITLE10=Southern Comfort
TTITLE11=When You Wore A Tulip
TTITLE12=Who Walks In When I Walk Out
TTITLE13=Blues My Naughty Sweetie Gives To Me
EXTD=
EXTT0=
EXTT1=
EXTT2=
EXTT3=
EXTT4=
EXTT5=
EXTT6=
EXTT7=
EXTT8=
EXTT9=
EXTT10=
EXTT11=
EXTT12=
EXTT13=
PLAYORDER=
